<?xml version="1.0" standalone="no"?>
<!DOCTYPE svg PUBLIC "-//W3C//DTD SVG 20010904//EN"
 "http://www.w3.org/TR/2001/REC-SVG-20010904/DTD/svg10.dtd">
<svg version="1.0" xmlns="http://www.w3.org/2000/svg"
 width="400.000000pt" height="400.000000pt" viewBox="0 0 200.000000 200.000000"
 preserveAspectRatio="xMidYMid meet">
<metadata>
Created by potrace 1.10, written by Peter Selinger 2001-2011
</metadata>
<g transform="translate(0.000000,200.000000) scale(0.100000,-0.100000)"
fill="#000000" stroke="none">
<path d="M938 1352 c-31 -31 -61 -67 -67 -79 -17 -34 -13 -83 11 -141 l23 -54
60 5 c119 9 168 58 174 174 3 63 1 73 -13 73 -10 0 -14 -5 -11 -10 15 -24
-118 -186 -177 -216 l-28 -15 0 56 c0 31 7 69 15 85 19 37 62 70 91 70 12 0
26 4 29 10 6 10 -28 85 -43 94 -5 3 -34 -21 -64 -52z m62 -27 c0 -8 -6 -15
-14 -15 -7 0 -25 -9 -39 -20 -40 -32 -44 -23 -7 15 36 37 60 45 60 20z m100
-126 c0 -14 -56 -69 -70 -69 -13 0 -10 5 34 57 21 25 36 30 36 12z"/>
<path d="M380 935 c0 -37 4 -65 10 -65 6 0 10 19 11 43 l0 42 16 -32 c9 -18
22 -33 28 -33 6 0 17 15 25 33 l14 32 3 -42 c6 -67 23 -50 23 22 0 78 -17 87
-46 24 l-18 -41 -20 41 c-30 62 -46 54 -46 -24z"/>
<path d="M551 939 c-23 -61 -21 -89 3 -56 17 22 52 22 65 0 5 -10 12 -15 16
-11 10 10 -36 128 -50 128 -7 0 -22 -27 -34 -61z"/>
<path d="M660 935 c0 -37 4 -65 10 -65 6 0 10 21 10 48 l0 47 30 -45 c16 -25
35 -45 41 -45 6 0 12 27 15 63 3 50 1 62 -10 62 -10 0 -16 -13 -18 -42 l-3
-43 -25 42 c-36 62 -50 56 -50 -22z"/>
<path d="M806 948 c-9 -29 -20 -59 -23 -65 -2 -7 2 -13 11 -13 9 0 16 7 16 15
0 10 10 15 30 15 20 0 30 -5 30 -15 0 -8 7 -15 15 -15 11 0 10 12 -9 63 -13
34 -30 63 -38 65 -9 2 -20 -16 -32 -50z m47 -8 c4 -14 0 -20 -13 -20 -13 0
-16 6 -12 25 5 28 17 26 25 -5z"/>
<path d="M920 980 c-23 -23 -26 -58 -6 -85 10 -14 28 -20 60 -21 46 -2 46 -2
46 32 0 30 -3 34 -25 34 -14 0 -25 -5 -25 -11 0 -5 4 -8 9 -4 5 3 12 1 15 -4
9 -14 -21 -33 -42 -26 -28 8 -33 41 -12 67 16 21 20 21 44 9 31 -17 43 -10 21
13 -22 22 -61 20 -85 -4z"/>
<path d="M1045 938 l4 -63 40 -3 c24 -2 41 1 41 7 0 6 -13 11 -30 11 -23 0
-30 4 -30 20 0 15 7 20 25 20 14 0 25 5 25 11 0 7 -10 9 -25 7 -19 -4 -25 -1
-25 13 0 14 7 19 30 19 17 0 30 5 30 10 0 6 -20 10 -44 10 l-44 0 3 -62z"/>
<path d="M1150 935 c0 -37 4 -65 10 -65 6 0 10 19 11 43 l0 42 16 -32 c9 -18
22 -33 28 -33 6 0 17 15 25 33 l14 32 3 -42 c6 -67 23 -50 23 22 0 78 -16 86
-47 23 l-21 -43 -18 43 c-26 64 -44 55 -44 -23z"/>
<path d="M1305 935 l0 -65 43 0 c23 0 42 5 42 10 0 6 -13 10 -30 10 -23 0 -30
4 -30 20 0 15 7 20 25 20 14 0 25 5 25 11 0 7 -10 9 -25 7 -19 -4 -25 -1 -25
13 0 14 7 19 30 19 17 0 30 5 30 10 0 6 -19 10 -42 10 l-43 0 0 -65z"/>
<path d="M1410 935 c0 -37 4 -65 10 -65 6 0 10 21 10 47 l0 47 30 -47 c16 -26
34 -47 40 -47 6 0 10 27 10 65 0 37 -4 65 -10 65 -5 0 -10 -21 -10 -47 l0 -48
-30 48 c-17 26 -35 47 -40 47 -6 0 -10 -28 -10 -65z"/>
<path d="M1530 990 c0 -5 8 -10 18 -10 14 0 17 -8 14 -55 -3 -45 -1 -55 12
-55 13 0 16 11 16 55 0 48 2 55 20 55 11 0 20 5 20 10 0 6 -22 10 -50 10 -27
0 -50 -4 -50 -10z"/>
<path d="M623 819 c-12 -4 -27 -18 -33 -29 -26 -49 23 -110 72 -91 29 11 45
41 23 41 -8 0 -15 -5 -15 -11 0 -6 -12 -9 -27 -7 -23 2 -29 8 -31 36 -4 37 19
53 49 34 29 -18 41 -15 30 7 -13 23 -39 31 -68 20z"/>
<path d="M749 816 c-34 -17 -46 -58 -26 -89 30 -46 92 -38 111 15 18 51 -36
99 -85 74z m56 -56 c0 -32 -2 -35 -30 -35 -24 0 -31 5 -33 23 -6 38 5 54 35
50 25 -3 28 -7 28 -38z"/>
<path d="M1007 818 c-27 -14 -20 -46 13 -63 17 -9 30 -20 30 -24 0 -17 -25
-19 -42 -4 -10 9 -18 11 -22 4 -4 -6 4 -17 18 -26 20 -13 29 -14 46 -5 29 15
22 51 -12 68 -16 7 -28 17 -28 22 0 14 18 21 25 10 9 -14 38 -13 33 2 -6 17
-42 27 -61 16z"/>
<path d="M1116 809 c-35 -28 -33 -73 5 -102 24 -17 30 -18 55 -6 24 12 30 21
32 55 3 42 -6 56 -44 68 -14 4 -30 -1 -48 -15z m69 -29 c10 -32 -4 -60 -30
-60 -14 0 -29 9 -35 20 -15 28 4 60 35 60 15 0 26 -7 30 -20z"/>
<path d="M860 760 c0 -68 17 -82 22 -17 l3 42 25 -42 c36 -61 50 -56 50 17 0
68 -17 82 -22 18 l-3 -43 -24 43 c-35 61 -51 55 -51 -18z"/>
<path d="M1235 760 l0 -60 37 0 c21 0 38 5 38 10 0 6 -11 10 -25 10 -23 0 -25
3 -25 50 0 34 -4 50 -13 50 -8 0 -12 -18 -12 -60z"/>
<path d="M1330 760 l0 -60 45 0 c25 0 45 5 45 10 0 6 -16 10 -35 10 -24 0 -35
5 -35 15 0 10 10 15 30 15 17 0 30 5 30 10 0 6 -14 10 -31 10 -24 0 -30 4 -27
18 2 13 11 16 36 14 18 -2 32 1 32 7 0 6 -20 11 -45 11 l-45 0 0 -60z"/>
</g>
</svg>
