<?xml version="1.0" standalone="no"?>
<!DOCTYPE svg PUBLIC "-//W3C//DTD SVG 20010904//EN"
 "http://www.w3.org/TR/2001/REC-SVG-20010904/DTD/svg10.dtd">
<svg version="1.0" xmlns="http://www.w3.org/2000/svg"
 width="400.000000pt" height="400.000000pt" viewBox="0 0 600.000000 600.000000"
 preserveAspectRatio="xMidYMid meet">
<metadata>
Created by potrace 1.10, written by Peter Selinger 2001-2011
</metadata>
<g transform="translate(0.000000,600.000000) scale(0.100000,-0.100000)"
fill="#000000" stroke="none">
<path d="M2522 4225 c-22 -12 -39 -32 -46 -52 -8 -22 -9 -172 -6 -477 l5 -444
24 -26 24 -26 467 0 467 0 24 26 24 26 3 452 c2 281 -1 463 -7 479 -22 56 -32
57 -507 60 -420 2 -438 1 -472 -18z m592 -74 c4 -5 24 -12 46 -16 22 -4 40
-10 40 -15 0 -4 12 -11 27 -15 26 -6 133 -72 133 -82 0 -22 -25 -43 -50 -43
-17 0 -30 3 -30 8 0 4 -21 19 -47 32 -27 14 -55 30 -63 36 -8 6 -28 14 -45 17
-16 3 -50 11 -75 17 -87 22 -240 -20 -338 -94 -38 -28 -53 -26 -72 9 -12 22
-10 26 11 44 34 27 110 65 194 95 45 16 260 22 269 7z m-494 -30 c0 -12 -20
-25 -27 -18 -7 7 6 27 18 27 5 0 9 -4 9 -9z m489 -107 c30 -8 59 -18 65 -24 5
-5 15 -10 22 -10 27 0 164 -103 164 -123 0 -6 7 -18 15 -27 13 -15 12 -19 -10
-40 l-25 -23 -25 23 c-13 13 -27 30 -30 39 -3 9 -26 32 -52 51 -80 60 -171 84
-281 75 -94 -8 -171 -47 -250 -128 -55 -54 -61 -58 -80 -46 -36 23 -34 39 10
83 52 49 89 80 108 89 8 4 22 11 30 16 60 36 190 70 245 63 22 -2 65 -11 94
-18z m-521 -13 c4 -22 -13 -51 -29 -51 -10 0 -12 41 -3 65 9 22 28 13 32 -14z
m538 -128 c121 -56 214 -171 234 -291 10 -57 -3 -154 -23 -179 -91 -112 -178
-123 -268 -33 -47 47 -48 50 -51 117 -3 65 -4 68 -28 68 -22 0 -25 -5 -28 -42
-4 -49 -32 -74 -58 -52 -17 14 -18 85 -1 118 17 34 71 65 102 57 34 -9 75 -56
75 -87 0 -56 32 -128 65 -149 41 -25 51 -25 83 1 72 56 83 141 32 243 -39 78
-67 110 -137 152 -50 30 -65 34 -124 34 -68 0 -112 -14 -174 -55 -73 -49 -115
-121 -131 -222 -7 -46 18 -144 42 -164 21 -17 17 -57 -7 -69 -31 -17 -43 -8
-75 56 -26 52 -29 66 -28 153 1 69 5 104 17 126 9 17 17 36 17 43 0 6 4 12 9
12 5 0 12 8 16 19 17 55 155 150 235 163 67 10 162 1 206 -19z m-56 -121 c76
-38 117 -86 144 -166 21 -66 20 -99 -5 -122 -33 -29 -53 -8 -61 64 -8 76 -28
111 -81 146 -53 34 -101 34 -152 0 -66 -43 -79 -68 -79 -151 0 -54 4 -76 17
-91 9 -10 17 -23 17 -28 1 -5 21 -29 45 -54 51 -51 62 -74 45 -95 -22 -27 -47
-16 -98 43 -78 90 -97 133 -97 222 0 108 45 184 136 231 46 23 126 24 169 1z
m-499 -155 c-13 -13 -15 21 -3 50 6 15 8 13 10 -11 2 -16 -1 -33 -7 -39z m19
-199 c0 -19 -25 -25 -35 -8 -3 5 -1 19 6 31 9 17 13 19 20 8 5 -8 9 -22 9 -31z"/>
<path d="M2183 2993 c-4 -9 -7 -53 -7 -97 l-1 -81 -78 4 c-63 2 -82 0 -97 -14
-10 -9 -23 -14 -28 -11 -5 3 -7 50 -4 106 l5 100 -36 0 c-20 0 -39 -5 -42 -10
-3 -6 -6 -98 -7 -206 0 -211 1 -217 52 -212 24 3 25 5 26 88 l0 85 100 6 c54
3 102 4 107 2 4 -2 7 -45 7 -94 l0 -90 33 3 32 3 2 205 c2 181 0 206 -14 218
-23 17 -42 15 -50 -5z"/>
<path d="M3324 2999 c-3 -6 -6 -95 -5 -197 2 -150 5 -190 17 -202 22 -22 190
-30 227 -10 22 12 31 12 45 2 31 -22 42 -24 57 -12 12 10 15 48 15 217 l0 204
-42 -3 -42 -3 0 -170 -1 -170 -102 -3 c-78 -2 -103 0 -104 10 0 7 0 84 1 170
1 147 0 157 -19 167 -25 14 -38 14 -47 0z"/>
<path d="M3838 2999 c-16 -9 -18 -30 -18 -208 0 -148 3 -201 13 -207 6 -5 75
-7 152 -4 l140 5 0 55 c0 55 0 55 -32 58 -27 3 -35 -1 -44 -21 -10 -22 -19
-25 -78 -29 -36 -3 -70 -3 -74 -1 -4 3 -7 80 -6 173 1 92 -2 173 -5 179 -9 14
-25 14 -48 0z"/>
<path d="M1029 2993 c-31 -8 -45 -54 -39 -131 7 -103 23 -115 140 -110 l85 3
3 -49 c2 -27 0 -52 -5 -56 -4 -4 -51 -4 -103 0 -105 8 -130 1 -130 -35 0 -13
8 -28 18 -33 9 -6 71 -7 140 -3 154 8 155 8 150 133 -2 47 -7 90 -11 95 -5 4
-51 8 -103 9 -52 0 -96 3 -98 5 -12 12 -15 98 -4 105 7 4 58 6 114 5 97 -2
102 -1 107 19 12 47 3 50 -127 49 -66 -1 -128 -3 -137 -6z"/>
<path d="M1449 2993 c-25 -6 -29 -33 -29 -215 0 -208 -10 -196 173 -199 142
-1 164 6 187 60 16 39 1 61 -41 61 -22 0 -32 -6 -39 -24 -8 -23 -14 -25 -100
-28 -50 -2 -95 -1 -100 0 -6 2 -10 61 -10 143 l0 139 104 0 105 0 3 -27 c3
-24 8 -28 39 -31 27 -2 38 1 43 14 10 27 -23 101 -48 108 -24 7 -262 6 -287
-1z"/>
<path d="M2401 2991 c-18 -12 -5 -48 20 -56 24 -8 24 -17 -1 -40 -18 -16 -20
-31 -20 -161 0 -79 3 -145 8 -147 4 -3 70 -6 147 -8 l140 -4 3 31 c4 45 -11
51 -113 43 -103 -8 -118 0 -113 61 l3 35 110 5 110 5 0 30 0 30 -79 3 c-59 2
-84 -1 -103 -13 -14 -9 -29 -13 -33 -8 -5 4 -6 36 -3 70 l6 62 106 3 106 3 3
33 3 32 -143 0 c-79 0 -149 -4 -157 -9z"/>
<path d="M2822 2987 c-16 -18 -6 -44 19 -52 24 -8 24 -17 -1 -40 -18 -16 -20
-31 -20 -161 0 -126 2 -144 18 -152 24 -13 282 -5 309 10 31 15 35 50 31 227
-2 106 -7 154 -16 163 -20 20 -324 24 -340 5z m288 -187 c0 -71 -2 -134 -5
-142 -4 -10 -24 -12 -81 -10 -59 3 -79 1 -93 -12 -10 -9 -21 -13 -24 -9 -4 3
-7 73 -7 154 l0 148 93 3 c50 2 98 1 105 -1 9 -2 12 -37 12 -131z"/>
<path d="M4197 2993 c-15 -15 -5 -44 18 -55 30 -14 31 -20 5 -43 -18 -16 -20
-31 -20 -154 0 -75 4 -141 8 -147 4 -8 57 -13 147 -15 l140 -4 3 31 c4 45 -11
51 -113 43 -103 -8 -118 0 -113 61 l3 35 110 5 110 5 0 30 0 30 -84 3 c-68 2
-87 0 -102 -14 -29 -26 -38 -7 -32 64 l6 62 108 0 109 0 0 35 0 35 -148 0
c-82 0 -152 -3 -155 -7z"/>
<path d="M4622 2987 c-12 -14 -7 -47 7 -47 3 0 13 -5 21 -10 12 -8 11 -12 -7
-32 -20 -21 -22 -35 -24 -166 -3 -155 0 -165 51 -160 l25 3 3 177 2 177 96 3
c53 2 100 0 105 -3 6 -3 9 -44 7 -90 l-3 -84 -76 3 c-43 2 -79 0 -83 -6 -3 -5
32 -48 78 -96 69 -71 89 -86 114 -86 51 0 48 19 -14 77 -64 58 -63 71 3 71 19
0 37 3 41 7 4 4 8 57 10 118 5 158 13 151 -185 155 -129 3 -162 1 -171 -11z"/>
<path d="M2179 1884 c-17 -20 -3 -45 23 -42 13 2 23 -1 23 -7 0 -5 -8 -9 -18
-8 -35 5 -31 -28 7 -63 20 -19 41 -34 47 -34 15 0 10 22 -8 36 -17 12 -17 15
-1 44 22 38 12 63 -31 78 -23 8 -32 7 -42 -4z"/>
<path d="M2690 1880 c-9 -16 -8 -21 4 -26 26 -10 51 0 51 21 0 28 -40 32 -55
5z"/>
<path d="M3128 1893 c-14 -3 -18 -17 -20 -64 -1 -32 -2 -67 -2 -76 -1 -14 8
-19 39 -21 22 -2 48 -11 58 -20 16 -14 19 -14 31 4 25 35 22 39 -34 44 -55 5
-75 22 -32 28 27 4 30 32 2 32 -11 0 -20 7 -20 15 0 9 10 15 26 15 21 0 25 4
22 23 -3 22 -32 31 -70 20z"/>
<path d="M3297 1894 c-12 -13 -8 -42 8 -48 8 -3 15 -16 15 -29 0 -24 21 -77
30 -77 3 0 12 21 19 48 20 73 20 74 31 67 5 -3 10 -25 10 -49 0 -50 22 -76 63
-76 21 0 27 5 27 21 0 18 -4 20 -31 14 l-30 -7 3 49 c3 48 6 51 41 37 16 -6
18 -3 15 17 -3 22 -7 24 -53 23 -27 -1 -63 -8 -78 -15 -26 -12 -30 -11 -46 9
-9 13 -20 20 -24 16z"/>
<path d="M1814 1875 c-3 -8 1 -29 10 -46 9 -18 16 -40 16 -50 0 -28 11 -49 26
-49 10 0 14 14 14 50 0 38 4 50 15 50 8 0 15 -7 15 -15 0 -8 8 -30 18 -49 35
-71 112 -32 112 57 0 42 -3 49 -27 58 -33 12 -73 4 -73 -16 0 -22 -18 -18 -25
5 -8 26 -35 26 -35 1 0 -31 -19 -35 -30 -7 -11 29 -28 34 -36 11z m186 -64 c0
-43 -13 -59 -34 -42 -19 16 -27 64 -13 73 31 20 47 8 47 -31z"/>
<path d="M2127 1883 c-4 -3 -7 -30 -7 -59 0 -55 -12 -73 -34 -55 -15 13 -26 5
-26 -21 0 -23 41 -24 74 -3 20 13 23 24 23 70 0 51 -15 84 -30 68z"/>
<path d="M2330 1865 c-12 -30 11 -70 45 -79 16 -4 17 -8 7 -18 -9 -9 -15 -9
-24 0 -19 19 -28 14 -28 -13 0 -20 5 -25 25 -25 13 0 39 9 57 20 26 15 34 28
38 57 4 33 9 38 33 41 53 6 75 -38 37 -73 -13 -12 -27 -15 -45 -11 -21 5 -25
3 -25 -14 0 -15 7 -20 29 -20 17 0 31 6 35 16 6 16 8 16 25 0 21 -19 31 -12
31 21 0 21 4 24 28 21 21 -2 28 -9 30 -31 3 -20 8 -27 20 -25 25 5 25 151 0
156 -12 2 -17 -5 -20 -30 -2 -28 -7 -34 -30 -36 -25 -3 -28 0 -28 27 0 33 -9
44 -29 32 -7 -5 -26 -4 -42 2 -23 9 -32 8 -47 -6 -11 -10 -22 -13 -28 -8 -5 5
-26 13 -46 16 -34 7 -39 5 -48 -20z m71 -15 c17 -9 28 -50 14 -50 -18 0 -53
34 -48 46 6 17 9 17 34 4z"/>
<path d="M2787 1883 c-3 -5 -7 -40 -8 -78 l-3 -70 34 -3 c46 -5 60 17 60 90 0
49 -3 58 -17 58 -10 0 -28 3 -39 6 -12 3 -24 2 -27 -3z m53 -78 c0 -33 -4 -45
-15 -45 -11 0 -15 12 -15 45 0 33 4 45 15 45 11 0 15 -12 15 -45z"/>
<path d="M2897 1847 c-10 -73 8 -117 49 -117 32 0 46 30 42 95 -4 77 -22 74
-26 -3 -4 -84 -26 -79 -30 6 -4 75 -26 86 -35 19z"/>
<path d="M3020 1810 l0 -80 29 0 c37 0 48 16 21 30 -17 9 -20 21 -20 70 0 47
-3 60 -15 60 -12 0 -15 -16 -15 -80z"/>
<path d="M3517 1846 l-19 -45 33 -36 c36 -39 81 -46 87 -12 3 14 -2 17 -25 15
-28 -3 -28 -3 -31 60 -4 75 -19 81 -45 18z"/>
<path d="M3646 1882 c-7 -11 0 -127 8 -140 11 -18 26 -4 26 24 0 32 22 27 30
-6 3 -13 11 -25 18 -28 9 -3 12 17 12 71 0 69 -2 75 -22 81 -32 8 -66 7 -72
-2z"/>
<path d="M3800 1856 c0 -19 5 -38 10 -41 6 -3 10 -17 10 -30 0 -34 10 -55 26
-55 8 0 15 10 16 23 0 12 2 28 2 36 2 30 25 22 28 -10 2 -18 8 -34 14 -36 15
-5 46 79 42 112 -3 29 -21 35 -26 8 -8 -44 -14 -48 -26 -16 -14 42 -29 46 -36
9 -7 -41 -28 -44 -32 -5 -4 46 -28 50 -28 5z"/>
<path d="M4070 1868 c0 -13 7 -32 15 -42 8 -11 15 -37 15 -58 0 -54 25 -51 34
4 4 23 11 45 17 49 5 3 11 19 12 34 2 35 -29 49 -35 15 -4 -28 -22 -30 -26 -2
-2 12 -10 22 -18 22 -8 0 -14 -10 -14 -22z"/>
<path d="M3991 1861 c-6 -11 -11 -31 -11 -44 0 -14 -7 -30 -15 -37 -8 -7 -15
-21 -15 -31 0 -23 25 -25 34 -4 3 8 17 15 31 15 16 0 25 -6 25 -15 0 -8 7 -15
15 -15 26 0 18 49 -10 62 -19 8 -22 14 -14 24 15 18 7 58 -13 62 -9 2 -21 -6
-27 -17z"/>
<path d="M2690 1807 c0 -20 9 -25 31 -20 28 8 24 33 -6 33 -14 0 -25 -6 -25
-13z"/>
<path d="M2696 1763 c-3 -4 -6 -12 -6 -20 0 -15 55 -18 64 -4 7 10 -49 33 -58
24z"/>
</g>
</svg>
